<?xml version="1.0" standalone="no"?>
<!DOCTYPE svg PUBLIC "-//W3C//DTD SVG 20010904//EN"
 "http://www.w3.org/TR/2001/REC-SVG-20010904/DTD/svg10.dtd">
<svg version="1.0" xmlns="http://www.w3.org/2000/svg"
 width="225.000000pt" height="225.000000pt" viewBox="0 0 225.000000 225.000000"
 preserveAspectRatio="xMidYMid meet">

<g transform="translate(0.000000,225.000000) scale(0.100000,-0.100000)"
fill="#000000" stroke="none">
<path d="M1113 2180 c-12 -5 -40 -9 -63 -8 -23 0 -47 -5 -53 -11 -6 -6 -18
-11 -26 -11 -9 0 -40 -12 -69 -27 -57 -29 -102 -74 -102 -101 0 -10 10 -2 25
20 24 36 62 65 71 55 3 -2 -5 -21 -16 -40 -12 -20 -26 -67 -31 -104 -5 -37
-14 -70 -20 -71 -6 -3 -6 -9 1 -17 9 -10 6 -16 -9 -25 -26 -13 -26 -24 -2 -47
10 -10 22 -37 26 -60 10 -61 21 -67 125 -60 l90 6 -1 -67 c-1 -54 -2 -61 -9
-38 -5 15 -17 37 -26 47 -18 20 -59 26 -69 9 -4 -6 -15 -5 -30 2 -32 15 -55 4
-55 -27 0 -40 -20 -29 -21 13 l0 37 -13 -47 c-7 -26 -19 -54 -26 -63 -7 -8
-10 -18 -8 -21 3 -3 14 6 25 19 15 19 23 23 36 15 9 -5 17 -18 17 -28 0 -22
16 -27 22 -8 2 6 10 8 17 4 9 -6 8 -11 -5 -21 -16 -11 -15 -15 9 -47 37 -48
92 -172 106 -236 10 -50 15 -132 7 -132 -1 0 -17 5 -35 11 -32 11 -38 35 -7
33 9 -1 16 3 16 8 0 5 -10 8 -22 6 -18 -2 -32 -27 -73 -123 -70 -164 -112
-226 -142 -207 -38 25 -42 107 -13 274 28 163 74 291 119 332 12 11 21 24 21
30 0 5 -16 -6 -36 -25 l-35 -34 10 28 c14 36 14 74 1 82 -6 3 -14 -4 -19 -16
l-8 -23 -12 21 c-6 12 -11 37 -11 55 0 19 -5 39 -12 46 -9 9 -8 12 5 12 12 0
17 8 17 30 0 17 9 38 22 50 18 16 19 20 5 20 -8 0 -18 -4 -21 -9 -7 -10 -52
-4 -83 11 -26 13 -53 -4 -53 -33 0 -18 -15 -32 -39 -36 -30 -4 -35 -22 -18
-58 9 -19 22 -35 27 -35 7 0 5 9 -4 22 -23 32 -20 58 4 58 11 0 23 -7 26 -15
5 -13 9 -13 21 -3 13 10 18 9 33 -9 9 -12 25 -21 36 -20 14 2 19 -4 19 -23 0
-21 -5 -26 -31 -28 -25 -2 -37 3 -53 24 -12 15 -24 24 -28 21 -3 -4 1 -15 11
-26 16 -18 16 -18 -9 -18 -14 0 -28 3 -31 8 -10 16 -30 9 -65 -23 -44 -41 -56
-81 -34 -115 22 -33 78 -55 119 -47 31 5 34 3 44 -25 13 -35 10 -37 -23 -15
-26 17 -86 16 -92 -3 -6 -16 49 -43 89 -43 32 0 32 0 10 -16 -12 -8 -22 -19
-22 -24 0 -5 20 -31 44 -58 l43 -49 -14 -84 c-23 -141 -1 -234 56 -227 35 4
77 68 132 200 l43 104 38 -19 c41 -21 40 -15 17 -109 -11 -42 -15 -44 -64 -24
-19 8 -35 11 -35 7 0 -11 42 -29 87 -36 75 -12 85 -16 80 -29 -3 -8 -1 -18 5
-24 7 -7 4 -14 -11 -21 -16 -9 -21 -9 -21 0 0 7 -9 9 -26 5 -25 -7 -26 -5 -22
24 6 39 -8 39 -17 0 -6 -26 -10 -29 -33 -24 -15 4 -35 11 -45 16 -28 14 -33 2
-5 -13 12 -7 50 -15 82 -18 l60 -6 -37 -25 c-60 -41 -59 -71 4 -99 l38 -17
-24 -36 c-28 -42 -23 -50 44 -68 40 -10 46 -10 58 6 11 15 13 7 14 -57 l2 -74
10 74 c8 56 7 76 -1 79 -14 4 -16 61 -3 81 5 8 11 -19 16 -73 4 -47 11 -88 15
-91 14 -9 60 17 60 34 0 14 -8 53 -26 130 -4 21 -1 19 29 -13 37 -39 67 -47
67 -18 0 22 -74 177 -89 186 -17 11 -14 2 29 -79 39 -74 48 -105 32 -105 -15
0 -32 24 -32 45 0 11 -11 44 -25 73 -14 30 -25 65 -25 78 0 13 -4 25 -10 26
-5 0 -13 1 -18 2 -11 1 -142 -144 -142 -157 0 -7 21 11 46 38 l46 50 -25 -45
c-32 -57 -48 -67 -84 -54 -44 15 -36 43 25 86 30 20 59 39 65 42 9 3 9 7 -1
13 -7 5 -11 20 -10 34 3 21 -1 24 -36 27 -37 3 -38 4 -31 35 3 18 9 82 12 142
5 104 3 114 -25 191 -16 45 -46 107 -66 138 -36 56 -36 57 -14 65 30 11 56 3
70 -23 7 -11 41 -82 76 -156 l64 -134 -12 -61 c-6 -33 -13 -68 -16 -77 -3 -10
-1 -18 4 -18 6 0 16 32 23 71 12 66 14 70 36 64 31 -7 29 6 -3 25 -19 11 -43
52 -85 145 -32 72 -68 142 -79 157 -14 19 -16 26 -6 22 9 -3 26 5 41 20 22 22
25 34 25 92 l0 67 -99 -6 c-110 -6 -121 -1 -121 49 0 17 -10 43 -21 58 -20 26
-21 28 -3 40 13 10 20 34 25 87 4 41 13 88 19 104 l12 30 9 -24 c5 -13 7 -32
4 -42 -4 -13 -1 -19 8 -19 9 0 17 -5 19 -11 2 -6 11 -7 22 -3 17 7 17 8 -3 24
-50 37 -44 141 9 148 13 2 33 10 44 18 23 16 60 19 51 4 -9 -14 1 -12 38 7 18
9 57 17 87 17 102 1 176 -62 171 -146 -1 -21 3 -38 8 -38 17 0 -5 -47 -46 -98
-55 -70 -57 -72 -45 -72 6 0 30 27 54 59 23 33 53 62 65 65 51 14 50 68 -2
102 -14 9 -25 24 -25 34 0 28 -40 71 -84 91 -43 19 -125 24 -163 9z m297 -190
c0 -10 -7 -20 -15 -24 -10 -3 -15 1 -15 14 0 10 -4 21 -10 25 -5 3 -7 12 -3
21 5 13 8 13 24 -2 11 -9 19 -25 19 -34z m-690 -321 c0 -11 -4 -18 -9 -15 -5
3 -11 -3 -14 -14 -3 -11 -11 -20 -17 -20 -9 0 -10 3 -1 13 6 8 8 17 5 20 -11
10 4 37 21 37 8 0 15 -9 15 -21z m58 -1 c20 -20 14 -44 -14 -56 -20 -10 -28
-9 -40 3 -15 15 -15 16 9 19 6 0 13 11 15 24 4 25 12 28 30 10z m250 -100 c3
-30 -1 -36 -20 -42 -33 -8 -48 -7 -48 4 0 5 11 12 25 16 32 8 32 31 0 46 -20
9 -22 14 -13 25 18 23 52 -7 56 -49z m-90 35 c2 -9 -7 -13 -27 -13 -30 0 -39
9 -24 24 11 10 46 3 51 -11z m-28 -43 c0 -11 -4 -20 -9 -20 -11 0 -22 26 -14
34 12 12 23 5 23 -14z m74 11 c3 -5 -3 -11 -13 -14 -12 -3 -22 1 -25 9 -6 16
29 20 38 5z m-346 -63 c17 -17 -5 -43 -24 -27 -11 9 -14 7 -14 -11 0 -16 -4
-20 -16 -16 -9 3 -20 6 -25 6 -5 0 -9 5 -9 10 0 6 8 10 19 10 10 0 21 9 24 20
6 22 27 26 45 8z m146 -14 c10 -27 7 -31 -24 -26 -16 2 -30 0 -30 -5 0 -16 23
-33 45 -33 66 0 58 -99 -12 -140 -36 -21 -44 -14 -13 13 11 9 20 24 20 32 0
20 -37 19 -48 0 -7 -13 -10 -12 -20 9 -9 21 -16 24 -50 19 -46 -6 -97 17 -107
48 -8 23 11 43 29 31 6 -3 25 -5 43 -4 23 2 36 -3 45 -18 7 -11 21 -20 30 -20
12 0 18 -8 18 -22 0 -16 3 -19 11 -11 16 16 4 42 -25 53 -31 11 -41 29 -27 43
21 21 11 30 -11 11 l-23 -18 21 23 c13 13 30 21 43 19 20 -3 20 -5 6 -32 -18
-33 -18 -36 -6 -36 5 0 13 10 16 23 7 20 42 56 56 57 4 0 10 -7 13 -16z m53
-26 c-3 -8 -6 -5 -6 6 -1 11 2 17 5 13 3 -3 4 -12 1 -19z m-62 -18 c3 -5 2
-10 -4 -10 -5 0 -13 5 -16 10 -3 6 -2 10 4 10 5 0 13 -4 16 -10z m-34 -133
c-10 -9 -11 -8 -5 6 3 10 9 15 12 12 3 -3 0 -11 -7 -18z m-65 -32 c18 -15 17
-16 -16 -9 -52 10 -72 23 -34 24 16 0 39 -7 50 -15z m104 -32 c-5 -16 -14 -48
-20 -72 l-11 -44 -35 34 c-19 18 -34 38 -34 44 0 10 85 64 102 65 4 0 3 -12
-2 -27z m410 -383 c0 -5 -4 -10 -10 -10 -5 0 -10 5 -10 10 0 6 5 10 10 10 6 0
10 -4 10 -10z m11 -72 c7 -24 11 -57 10 -74 -1 -17 5 -59 13 -92 12 -54 12
-63 -1 -73 -22 -19 -30 1 -37 105 -13 169 -27 180 -46 36 -13 -109 -15 -111
-79 -89 -31 11 -31 12 -16 35 16 24 28 45 83 138 19 31 40 56 47 56 8 0 19
-19 26 -42z"/>
<path d="M756 1641 c-4 -7 -5 -15 -2 -18 9 -9 19 4 14 18 -4 11 -6 11 -12 0z"/>
<path d="M1080 2103 c0 -5 31 -8 69 -9 49 0 76 -5 97 -19 l29 -18 -58 -12
c-81 -16 -81 -25 2 -18 50 4 75 2 86 -7 8 -7 15 -8 15 -3 0 17 -53 65 -87 79
-34 15 -153 19 -153 7z"/>
<path d="M1410 2070 c-11 -7 -5 -10 26 -10 45 0 55 -8 72 -55 l10 -30 1 26 c1
15 -7 36 -16 48 -21 24 -71 36 -93 21z"/>
<path d="M974 2034 c3 -8 11 -67 18 -129 9 -94 14 -111 24 -97 15 22 44 152
43 194 -1 21 -8 0 -20 -56 -10 -49 -21 -92 -24 -94 -10 -10 -5 49 6 69 5 11 9
39 7 62 l-3 42 -11 -45 -10 -45 -8 58 c-4 31 -12 57 -18 57 -5 0 -7 -7 -4 -16z"/>
<path d="M1310 1950 c-14 -4 -42 -8 -62 -9 -21 -1 -38 -6 -38 -12 0 -11 19 -9
103 7 15 3 27 10 27 15 0 5 -1 9 -2 8 -2 -1 -14 -5 -28 -9z"/>
<path d="M1461 1937 c19 -13 36 -22 39 -20 8 7 -41 43 -58 43 -8 0 0 -10 19
-23z"/>
<path d="M1090 1937 c-13 -7 -26 -19 -28 -27 -4 -12 -1 -11 15 3 21 18 48 22
57 8 3 -5 -7 -11 -23 -14 -16 -3 -31 -13 -35 -23 -4 -12 -2 -15 9 -11 8 4 17
2 20 -3 4 -6 11 -10 17 -10 6 0 6 6 -2 15 -17 21 -7 29 19 15 27 -14 27 -34 0
-61 -16 -16 -27 -19 -51 -14 -21 5 -28 4 -24 -4 13 -20 74 -13 90 11 17 23 21
75 8 94 -16 24 -47 33 -72 21z"/>
<path d="M900 1896 c0 -18 -5 -26 -17 -26 -9 0 -14 -3 -10 -6 9 -9 67 6 67 17
0 6 -4 7 -10 4 -5 -3 -10 1 -10 9 0 8 -4 18 -10 21 -6 4 -10 -5 -10 -19z"/>
<path d="M1366 1912 c-2 -4 -7 -25 -11 -47 -5 -28 -4 -37 3 -30 11 11 28 85
19 85 -3 0 -8 -3 -11 -8z"/>
<path d="M1510 1866 c0 -5 86 -56 95 -56 15 0 -10 22 -45 40 -39 20 -50 23
-50 16z"/>
<path d="M1483 1783 c-4 -27 -8 -95 -8 -153 0 -92 3 -112 26 -161 14 -30 56
-88 92 -128 68 -75 97 -124 97 -160 0 -20 -37 -70 -152 -203 -68 -80 -91 -122
-83 -149 6 -17 3 -19 -19 -13 -29 7 -37 -15 -12 -35 8 -7 12 -20 9 -31 -3 -13
3 -23 23 -33 26 -14 27 -16 25 -91 -1 -48 2 -76 8 -76 7 0 11 30 11 79 0 101
11 131 58 156 20 11 41 30 47 43 5 12 14 22 19 22 16 0 76 44 76 56 0 7 -7 14
-15 18 -8 3 -15 15 -15 26 0 15 -7 20 -24 20 -14 0 -28 -5 -31 -10 -4 -6 -15
-8 -26 -5 -14 5 -24 -1 -37 -24 -9 -17 -23 -31 -29 -31 -15 0 -16 -14 -4 -56
5 -19 5 -37 -1 -48 -9 -15 -11 -14 -29 8 -37 46 -38 44 155 275 86 104 81 137
-37 269 -105 117 -112 137 -111 325 0 86 -1 157 -2 157 -2 0 -6 -21 -11 -47z
m164 -847 c-3 -8 -20 -22 -37 -31 -31 -16 -31 -16 -21 4 12 22 52 53 59 46 3
-2 2 -11 -1 -19z m-86 -33 c-12 -20 -14 -14 -5 12 4 9 9 14 11 11 3 -2 0 -13
-6 -23z m114 -3 c-8 -13 -85 -53 -91 -47 -6 6 68 56 84 56 7 1 10 -4 7 -9z
m-95 -85 c-7 -8 -18 -15 -24 -15 -6 0 -2 7 8 15 25 19 32 19 16 0z m-129 -32
c13 -16 12 -17 -3 -4 -17 13 -22 21 -14 21 2 0 10 -8 17 -17z"/>
<path d="M1408 1748 c-4 -68 -3 -87 6 -77 8 10 15 149 7 149 -5 0 -11 -33 -13
-72z"/>
<path d="M1170 1765 c-16 -9 -19 -14 -9 -15 8 0 24 7 35 15 24 18 7 19 -26 0z"/>
<path d="M911 1760 c-8 -4 -21 -6 -29 -2 -10 3 -13 1 -8 -6 9 -15 43 -16 51
-1 10 15 2 20 -14 9z"/>
<path d="M1322 1632 c-18 -64 -32 -123 -32 -129 0 -21 -28 -15 -44 9 -12 17
-14 38 -10 93 4 38 10 74 15 80 16 17 9 22 -22 17 -25 -4 -28 -7 -16 -14 14
-7 15 -21 10 -88 -5 -69 -3 -83 12 -100 10 -11 25 -20 33 -20 10 0 12 -7 9
-22 -14 -56 -18 -156 -9 -192 10 -33 8 -42 -10 -67 -12 -16 -19 -31 -16 -35 4
-3 14 5 23 19 l16 25 44 -41 c40 -39 42 -43 29 -64 -69 -108 -106 -206 -85
-223 4 -3 23 -41 43 -85 42 -90 66 -172 75 -257 3 -32 10 -58 15 -58 16 0 -18
189 -47 263 -5 13 -3 16 8 11 11 -4 16 4 20 33 2 21 8 49 12 63 13 41 -13 10
-28 -35 -13 -37 -15 -38 -21 -17 -11 35 -1 64 44 123 22 30 43 64 47 77 9 38
-25 108 -74 151 -24 22 -53 57 -64 78 -35 69 -22 200 41 410 32 107 34 113 23
113 -5 0 -23 -53 -41 -118z m81 -551 c29 -49 22 -87 -28 -153 l-45 -60 6 71
c5 50 4 71 -5 71 -7 0 -11 -24 -12 -67 0 -38 -4 -77 -9 -88 -8 -20 -9 -20 -9
1 -1 11 -4 24 -8 27 -19 20 -7 68 36 144 25 46 48 83 51 83 3 0 13 -13 23 -29z"/>
<path d="M1376 1599 c-7 -22 -34 -150 -41 -192 -11 -66 12 -140 62 -209 47
-63 82 -131 83 -158 0 -8 -9 -33 -21 -54 -26 -48 -17 -60 11 -15 33 53 23 116
-29 187 -96 131 -108 192 -70 354 12 49 18 92 15 95 -3 3 -8 0 -10 -8z"/>
<path d="M1628 1453 c-2 -19 -10 -29 -28 -34 l-25 -6 27 -8 c19 -5 29 -16 34
-38 l8 -32 5 30 c4 18 15 34 29 40 29 13 28 25 -3 25 -18 0 -25 5 -25 19 0 31
-18 34 -22 4z"/>
<path d="M1206 1373 c-10 -37 -17 -148 -8 -133 11 17 27 150 18 150 -2 0 -7
-8 -10 -17z"/>
<path d="M491 1358 c-1 -23 -6 -28 -26 -28 -14 0 -25 -4 -25 -10 0 -5 11 -12
25 -16 18 -4 25 -13 25 -30 0 -13 5 -24 10 -24 6 0 10 11 10 25 0 18 8 29 28
37 l27 12 -26 3 c-17 3 -29 13 -36 31 l-11 27 -1 -27z"/>
<path d="M1410 1336 c0 -3 20 -47 45 -98 25 -51 51 -110 57 -130 6 -21 15 -38
20 -38 12 0 11 2 -27 96 -41 104 -95 199 -95 170z"/>
<path d="M489 1164 c-5 -15 -7 -35 -4 -45 4 -13 1 -19 -9 -19 -19 0 -22 -40
-3 -40 6 0 4 -5 -5 -11 -19 -11 -25 -49 -8 -49 6 0 10 -18 10 -41 0 -33 6 -46
30 -67 17 -15 30 -32 30 -38 0 -7 14 -18 30 -26 48 -21 65 -68 63 -170 -1 -49
0 -88 2 -88 2 0 16 23 30 52 14 28 44 73 67 100 22 27 38 51 36 54 -5 5 -42
-34 -86 -91 l-23 -30 5 40 c3 22 6 49 6 61 0 12 14 35 30 52 33 35 38 52 15
52 -8 0 -15 -4 -15 -10 0 -5 -4 -10 -10 -10 -17 0 -11 43 15 99 28 59 26 74
-5 46 -16 -14 -23 -15 -34 -6 -28 24 -38 1 -15 -35 12 -19 19 -37 16 -40 -3
-3 -8 4 -12 15 -10 32 -25 25 -26 -11 l-1 -33 -14 33 c-14 31 -13 38 6 76 22
46 26 81 10 91 -5 3 -10 15 -10 25 0 27 -18 34 -40 15 -17 -16 -18 -15 -25 17
-13 61 -39 75 -56 32z m41 -57 c0 -22 -4 -36 -10 -32 -13 8 -24 71 -15 85 12
19 25 -9 25 -53z m70 -12 c0 -9 -7 -32 -15 -52 -13 -30 -17 -33 -30 -23 -20
17 -19 32 6 64 23 29 39 34 39 11z m-93 -31 c-7 -7 -37 7 -37 17 0 6 9 5 21
-1 11 -7 19 -14 16 -16z m93 -68 c-5 -15 -14 -25 -19 -22 -5 3 -1 21 8 39 18
39 27 25 11 -17z m-66 28 c4 -9 4 -19 2 -22 -8 -7 -76 8 -76 18 0 23 66 26 74
4z m26 -54 c0 -5 -16 -10 -35 -10 -19 0 -35 5 -35 10 0 6 16 10 35 10 19 0 35
-4 35 -10z m24 -46 c11 -30 5 -39 -12 -17 -9 11 -26 23 -37 26 -13 3 -9 5 11
6 21 1 34 -5 38 -15z m-56 -22 c20 -30 11 -28 -19 4 -13 15 -18 25 -10 22 8
-2 21 -14 29 -26z m52 -33 c6 -10 7 -19 3 -19 -4 0 -13 11 -20 25 -13 29 2 24
17 -6z m69 -104 l0 -20 -9 20 c-5 11 -9 29 -9 40 l0 20 9 -20 c5 -11 9 -29 9
-40z"/>
<path d="M1211 1075 c-6 -42 -11 -87 -11 -100 0 -13 -7 -31 -16 -39 -14 -15
-11 -16 28 -15 24 1 33 4 21 6 -28 5 -28 26 2 196 2 15 1 27 -4 27 -5 0 -14
-34 -20 -75z"/>
<path d="M1190 1105 c0 -8 2 -15 4 -15 2 0 6 7 10 15 3 8 1 15 -4 15 -6 0 -10
-7 -10 -15z"/>
<path d="M647 1104 c-16 -16 -7 -44 14 -44 15 0 20 5 17 22 -3 22 -19 33 -31
22z m23 -24 c0 -5 -5 -10 -11 -10 -5 0 -7 5 -4 10 3 6 8 10 11 10 2 0 4 -4 4
-10z"/>
<path d="M1166 1021 c-4 -7 -5 -15 -2 -18 9 -9 19 4 14 18 -4 11 -6 11 -12 0z"/>
<path d="M560 340 c0 -5 6 -13 14 -17 12 -6 12 -17 4 -53 -12 -52 1 -192 17
-188 6 2 10 28 11 58 l1 55 72 3 c54 2 71 6 71 17 0 12 -15 15 -70 15 -68 0
-70 1 -70 26 0 53 15 64 85 64 51 0 65 3 65 15 0 12 -18 15 -100 15 -57 0
-100 -4 -100 -10z"/>
<path d="M825 265 c-8 -97 0 -168 20 -185 22 -18 165 -4 165 17 0 12 -12 14
-74 8 l-74 -7 -7 41 c-4 23 -4 79 0 126 6 73 5 85 -8 85 -12 0 -17 -18 -22
-85z"/>
<path d="M1112 316 c-55 -63 -52 -154 7 -210 33 -32 78 -37 114 -13 48 31 73
128 46 180 -43 84 -115 102 -167 43z m126 -36 c63 -93 -39 -230 -107 -144 -39
49 -36 120 7 167 26 29 72 18 100 -23z"/>
<path d="M1352 213 c3 -115 6 -138 18 -138 12 0 14 11 12 50 l-4 50 34 -31
c36 -35 88 -64 113 -64 28 0 15 18 -29 40 -24 11 -50 28 -56 36 -10 12 -8 14
17 14 62 0 96 60 72 128 -15 43 -35 52 -114 52 l-66 0 3 -137z m147 73 c12
-26 12 -33 0 -55 -12 -22 -23 -26 -67 -29 l-52 -3 0 48 c0 60 13 75 65 71 33
-2 42 -8 54 -32z"/>
<path d="M1600 335 c0 -10 10 -15 30 -15 l30 0 0 -104 0 -105 -27 -3 c-17 -2
-28 -9 -28 -18 0 -12 16 -16 73 -18 67 -3 72 -1 72 18 0 16 -6 20 -30 20 l-30
0 0 105 0 105 30 0 c20 0 30 5 30 15 0 12 -15 15 -75 15 -60 0 -75 -3 -75 -15z"/>
</g>
</svg>
